<?xml version="1.0" encoding="iso-8859-1"?>
<!-- Uploaded to: SVG Repo, www.svgrepo.com, Generator: SVG Repo Mixer Tools -->
<svg height="800px" width="800px" version="1.1" id="Layer_1" xmlns="http://www.w3.org/2000/svg" xmlns:xlink="http://www.w3.org/1999/xlink" 
	 viewBox="0 0 511.999 511.999" xml:space="preserve">
<path style="fill:#93A1B9;" d="M16.761,511.969c4.289,0,8.578-1.637,11.851-4.911l32.826-32.826c6.547-6.542,6.547-17.16,0-23.703
	c-6.547-6.547-17.156-6.547-23.703,0L4.91,483.356c-6.547,6.542-6.547,17.16,0,23.703C8.184,510.332,12.472,511.969,16.761,511.969z
	"/>
<path style="fill:#8291A6;" d="M28.612,507.058c-3.274,3.274-7.563,4.911-11.851,4.911s-8.578-1.637-11.851-4.911
	c-0.018-0.018-0.022-0.041-0.038-0.059l56.506-56.509c0.019,0.017,0.042,0.021,0.06,0.039c6.547,6.542,6.547,17.16,0,23.703
	L28.612,507.058z"/>
<path style="fill:#C9D2D9;" d="M428.232,131.218l-47.449-47.449c-3.143-3.143-4.911-7.404-4.911-11.851
	c0-4.446,1.768-8.709,4.911-11.851l55.132-55.126c6.547-6.547,17.156-6.547,23.703,0l47.471,47.471
	c3.143,3.143,4.911,7.41,4.911,11.856s-1.768,8.709-4.911,11.851l-55.153,55.105c-3.274,3.269-7.563,4.906-11.851,4.906
	C435.796,136.129,431.506,134.492,428.232,131.218z"/>
<path style="fill:#ACB8BF;" d="M483.273,28.597l23.815,23.815c3.143,3.143,4.911,7.41,4.911,11.856s-1.768,8.709-4.911,11.851
	l-55.153,55.105c-3.274,3.269-7.563,4.906-11.851,4.906s-8.578-1.637-11.851-4.911l-23.79-23.79L483.273,28.597z"/>
<path style="fill:#C9D2D9;" d="M37.692,474.286c-3.973-3.967-5.686-9.653-4.584-15.147l21.771-108.54
	c1.003-5.101,2.816-10.039,5.391-14.667c2.553-4.588,7.126-7.715,12.331-8.447c5.239-0.71,10.444,1.043,14.165,4.753l92.978,92.972
	c3.721,3.716,5.478,8.964,4.747,14.176c-0.731,5.205-3.852,9.772-8.457,12.326c-4.649,2.586-9.581,4.398-14.569,5.364
	L52.838,478.869c-1.092,0.218-2.205,0.327-3.295,0.327C45.145,479.198,40.868,477.462,37.692,474.286z"/>
<path style="fill:#ACB8BF;" d="M176.035,451.713c-4.649,2.586-9.581,4.398-14.569,5.364L52.839,478.87
	c-1.092,0.218-2.205,0.327-3.295,0.327c-4.398,0-8.676-1.735-11.851-4.911c-0.019-0.018-0.03-0.042-0.048-0.061l95.556-95.556
	l46.545,46.542c3.721,3.716,5.478,8.964,4.747,14.176C183.761,444.593,180.64,449.16,176.035,451.713z"/>
<path style="fill:#F37B2A;" d="M157.72,259.387l94.762,94.874c3.129,3.129,7.378,4.917,11.846,4.917
	c4.47,0,8.716-1.788,11.846-4.917l175.668-175.668c9.499-9.387,14.752-22.126,14.752-35.536c0-13.41-5.253-26.149-14.752-35.536
	l-47.381-47.493c-19.556-19.556-51.517-19.556-71.073,0l-34.753,34.754L157.721,235.697
	C151.127,242.177,151.127,252.793,157.72,259.387z"/>
<path style="fill:#E56722;" d="M264.329,359.177c-4.469,0-8.716-1.788-11.846-4.917l-47.408-47.465L428.123,83.746l23.72,23.774
	c9.499,9.387,14.752,22.126,14.752,35.536c0,13.41-5.253,26.149-14.752,35.536L276.175,354.26
	C273.045,357.389,268.799,359.177,264.329,359.177z"/>
<path style="fill:#6B7A99;" d="M175.893,451.795c4.037-2.194,7.825-5.052,11.251-8.496l100.886-100.879L169.562,223.816
	L68.641,324.873c-3.45,3.444-6.324,7.258-8.512,11.314c-3.502,6.494-2.282,14.538,2.935,19.755l92.978,92.972
	c4.3,4.307,10.819,5.947,16.639,4.213C173.794,452.795,174.865,452.351,175.893,451.795z"/>
<path style="fill:#5A6680;" d="M175.893,451.795c-6.415,3.47-14.681,2.296-19.851-2.881l-46.545-46.542l119.276-119.276
	l59.257,59.324L187.142,443.3C183.717,446.743,179.931,449.601,175.893,451.795C175.058,452.246,179.931,449.601,175.893,451.795z"
	/>
<path style="fill:#6B7A99;" d="M137.941,184.85c6.482,6.481,17.097,6.481,23.692,0L263.434,83.048c6.259-6.37,17.321-6.37,23.692,0
	l11.51,11.734l116.888,120.129l23.691-23.691L322.325,71.091l-11.509-11.734c-9.499-9.499-22.127-14.751-35.537-14.751
	s-26.037,5.252-35.535,14.751L137.941,161.048C131.35,167.641,131.35,178.257,137.941,184.85z"/>
<polygon style="fill:#5A6680;" points="380.741,131.128 439.214,191.22 415.524,214.911 357.053,154.817 "/>
</svg>